# xmcd CD database file
#
# Track frame offsets:
#	150
#	11887
#	26883
#	40678
#	55415
#	69657
#	83461
#	97678
#	108694
#	122043
#	136152
#	149842
#	161065
#	175179
#	186454
#	197082
#	209413
#	222539
#	234933
#	249459
#	261265
#	275348
#
# Disc length: 3849 seconds
#
# Revision: 0
# Processed by: cddbd v1.4PL0 Copyright (c) Steve Scherf et al.
# Submitted via: CDex 1.51
#
DISCID=4d0f0716
DTITLE=Ella Fitzgerald - The Legendary, Vol. 1 [Compilation]
DYEAR=1900
DGENRE=Jazz
TTITLE0=I'll Chase the Blues Away
TTITLE1=Love and Kisses
TTITLE2=My Melancholy Baby
TTITLE3=All My Life
TTITLE4=Crying My Heart Out for You
TTITLE5=A Little Bit Later On
TTITLE6=Love, You're Just a Laugh
TTITLE7=Devoting My Time to You
TTITLE8=You'll Have to Swing It
TTITLE9=Swinging on the Reservation
TTITLE10=I Got the Spring Fever Blues
TTITLE11=Vote for Mr Rhythm
TTITLE12=Goodnight My Love
TTITLE13=Oh Yes, Take Another Guess
TTITLE14=Didja Mean It?
TTITLE15=My Last Affair
TTITLE16=Shine
TTITLE17=Take Another Guess
TTITLE18=Dedicated to You
TTITLE19=Cryin' Mood
TTITLE20=Everyone's Wrong But Me
TTITLE21=Just a Simple Melody
EXTD=
EXTT0=
EXTT1=
EXTT2=
EXTT3=
EXTT4=
EXTT5=
EXTT6=
EXTT7=
EXTT8=
EXTT9=
EXTT10=
EXTT11=
EXTT12=
EXTT13=
EXTT14=
EXTT15=
EXTT16=
EXTT17=
EXTT18=
EXTT19=
EXTT20=
EXTT21=
PLAYORDER=
